<svg xmlns="http://www.w3.org/2000/svg" width="1024" height="1024" viewBox="0 0 1024 1024">
<g>
<path d="M 533.50 656.45 C528.55,659.89 521.75,664.29 518.39,666.24 L 512.28 669.78 L 506.39 666.61 C500.13,663.24 487.11,654.66 480.53,649.57 C428.64,609.39 393.12,571.64 364.86,526.63 C355.13,511.14 337.38,474.70 329.97,455.00 L 323.76 438.50 L 324.29 422.50 C325.28,393.14 330.34,372.57 342.99,346.50 C354.40,323.01 365.78,307.26 384.40,289.22 C408.27,266.10 432.76,251.19 462.50,241.68 C475.50,237.52 479.30,236.70 503.00,232.93 C507.12,232.28 512.30,231.33 514.50,230.83 C516.70,230.32 526.41,229.64 536.08,229.32 C556.12,228.64 571.00,229.86 587.29,233.53 C598.45,236.04 621.78,243.50 623.45,245.09 C623.97,245.59 624.98,246.00 625.70,246.00 C628.18,246.00 626.98,244.35 622.75,241.98 C620.41,240.67 616.99,238.57 615.14,237.32 C603.73,229.58 573.91,218.73 554.00,215.07 C550.42,214.42 545.92,213.48 544.00,212.99 C542.08,212.50 536.90,211.84 532.50,211.51 C528.10,211.19 520.73,210.65 516.12,210.32 C491.72,208.53 452.93,216.28 424.84,228.57 C393.71,242.18 366.68,262.74 344.09,289.97 C339.21,295.86 336.37,299.98 324.47,318.50 C319.78,325.79 313.03,339.46 309.97,347.86 C307.93,353.45 306.00,356.55 306.00,354.24 C306.00,353.75 305.32,348.80 304.49,343.24 C300.57,317.06 298.03,267.33 299.45,244.81 L 300.19 233.12 L 311.34 228.44 C352.99,210.97 400.42,198.60 452.00,191.77 C466.71,189.83 473.12,189.58 511.00,189.56 C545.83,189.53 556.21,189.85 568.50,191.32 C618.83,197.35 664.78,209.14 710.49,227.74 L 722.49 232.62 L 723.18 236.56 C724.25,242.56 724.12,281.42 722.97,300.00 C721.44,324.85 716.68,362.00 715.03,362.00 C714.68,362.00 713.83,360.31 713.13,358.25 C712.44,356.19 711.45,353.60 710.95,352.50 C710.45,351.40 707.82,345.45 705.12,339.28 C702.42,333.11 698.81,325.79 697.10,323.01 C695.40,320.24 694.00,317.78 694.00,317.56 C694.00,316.74 685.54,304.35 679.62,296.50 C673.13,287.89 665.15,279.00 663.90,279.00 C663.48,279.00 663.59,280.46 664.14,282.25 C667.72,293.85 671.91,318.24 671.97,327.77 C671.99,332.03 672.93,334.89 676.86,342.77 C679.54,348.12 682.72,355.42 683.93,359.00 C685.14,362.58 686.52,366.40 686.99,367.50 C687.78,369.32 690.81,381.36 693.04,391.50 C695.67,403.51 697.41,432.87 696.05,442.50 C694.89,450.74 694.86,450.85 689.02,465.50 C670.85,511.13 643.40,554.34 610.80,588.62 C590.73,609.72 552.64,643.14 533.50,656.45 ZM 466.00 461.62 C466.00,502.61 466.20,509.08 467.42,508.07 C469.32,506.49 492.97,477.86 502.17,466.00 C507.57,459.04 510.21,456.43 512.02,456.26 C527.78,454.70 540.71,450.21 551.31,442.60 C573.26,426.86 583.93,404.14 582.77,375.62 C582.34,365.08 581.86,362.44 579.11,355.36 C577.36,350.88 574.23,344.58 572.15,341.36 C566.13,332.06 554.48,322.36 543.22,317.29 C530.96,311.76 530.52,311.72 473.80,311.27 C444.81,311.04 420.41,311.23 419.57,311.70 C418.37,312.37 422.34,316.82 437.84,332.19 L 457.64 351.83 L 489.57 352.18 C520.34,352.52 521.69,352.62 526.62,354.83 C529.43,356.10 533.22,358.66 535.03,360.53 L 538.33 363.93 L 532.49 371.72 C520.25,388.03 517.28,391.82 508.15,402.75 L 498.74 414.00 L 466.00 414.00 ZM 414.58 565.81 C414.96,568.18 415.63,569.76 416.06,569.31 C416.50,568.87 425.65,557.92 436.41,545.00 L 455.98 521.50 L 455.99 442.64 L 456.00 363.77 L 436.31 343.89 C425.49,332.95 416.33,324.00 415.97,324.00 C415.07,324.00 413.71,560.43 414.58,565.81 ZM 591.59 361.86 C591.84,362.63 596.25,357.65 601.78,350.36 C620.05,326.29 623.50,322.05 624.66,322.28 C625.30,322.40 630.36,326.89 635.91,332.25 C641.46,337.61 646.19,342.00 646.41,342.00 C646.64,342.00 647.09,338.29 647.43,333.75 C647.76,329.21 648.74,316.73 649.60,306.00 C650.47,295.27 651.57,281.55 652.05,275.50 C652.54,269.45 653.24,261.41 653.61,257.64 L 654.29 250.77 L 649.93 251.51 C647.54,251.92 644.88,252.60 644.04,253.04 C641.76,254.21 628.69,258.00 626.92,258.00 C626.08,258.00 624.97,258.37 624.45,258.83 C623.93,259.28 621.47,260.23 619.00,260.94 C616.53,261.65 613.38,262.60 612.00,263.05 C610.62,263.50 605.45,265.07 600.50,266.53 C577.43,273.35 569.02,276.22 569.56,277.09 C569.88,277.61 574.49,281.33 579.82,285.36 C580.36,285.78 580.88,286.17 581.38,286.54 C588.45,291.89 591.02,293.83 590.96,295.69 C590.92,296.88 589.81,298.04 588.11,300.04 C586.03,302.49 581.12,308.73 577.21,313.90 L 570.10 323.30 L 574.10 327.85 C582.98,337.93 585.61,343.07 591.59,361.86 ZM 512.00 518.55 C512.00,547.40 512.24,571.00 512.53,571.00 C512.82,571.00 522.05,563.79 533.03,554.97 L 553.00 538.95 L 553.00 459.00 L 581.45 459.00 L 584.47 455.60 C587.93,451.71 605.00,423.84 605.00,422.09 C605.00,421.27 601.79,421.02 593.87,421.22 L 582.74 421.50 L 580.12 426.39 C576.40,433.34 564.85,445.37 556.56,450.93 C544.16,459.24 533.67,462.97 515.25,465.62 L 512.00 466.09 ZM 788.00 827.00 L 788.00 833.00 L 509.17 833.00 C355.81,833.00 230.03,832.70 229.67,832.33 C229.30,831.97 229.00,830.62 229.00,829.33 L 229.00 827.00 ZM 442.50 784.50 L 441.50 813.50 L 438.46 813.80 C436.79,813.96 435.11,813.77 434.71,813.38 C434.32,812.99 434.00,803.07 434.00,791.33 L 434.00 770.00 L 443.72 770.00 L 450.11 783.50 C453.62,790.92 456.76,797.00 457.08,797.00 C457.40,797.00 460.55,790.94 464.08,783.53 L 470.50 770.07 L 480.04 770.00 L 479.50 813.50 L 472.50 813.50 L 472.59 799.25 C472.64,791.41 472.38,785.00 472.01,785.00 C471.63,785.00 468.67,790.61 465.41,797.47 C459.35,810.26 457.85,811.78 454.80,808.25 C453.97,807.29 450.86,801.55 447.90,795.50 ZM 680.09 799.00 L 679.50 813.50 L 676.46 813.80 C674.79,813.96 673.11,813.77 672.71,813.38 C672.32,812.99 672.00,803.07 672.00,791.33 L 672.00 770.00 L 684.25 770.00 C694.64,770.01 696.99,770.30 699.70,771.96 C707.78,776.89 708.15,789.93 700.40,796.50 L 698.04 798.50 L 702.51 805.50 C704.97,809.35 706.98,812.86 706.99,813.31 C706.99,813.75 705.09,813.98 702.76,813.81 C698.66,813.51 698.36,813.25 694.11,806.25 L 689.70 799.00 ZM 237.00 800.00 L 237.00 814.00 L 233.67 814.00 C231.83,814.00 230.03,813.70 229.67,813.33 C229.30,812.97 229.00,803.07 229.00,791.33 L 229.00 770.00 L 240.60 770.00 C255.00,770.00 258.35,771.27 261.25,777.83 C262.65,780.99 263.08,783.61 262.72,786.76 C261.71,795.77 255.81,800.00 244.25,800.00 ZM 761.80 806.75 C761.50,813.46 761.48,813.50 758.46,813.80 C756.79,813.96 755.11,813.77 754.71,813.38 C754.32,812.99 754.00,803.07 754.00,791.33 L 754.00 770.00 L 765.75 770.00 C775.64,770.01 778.01,770.32 780.70,771.96 C784.99,774.58 787.00,778.80 787.00,785.20 C786.99,795.57 781.62,800.00 769.08,800.00 L 762.09 800.00 ZM 639.62 812.25 C639.48,813.71 633.45,814.54 632.63,813.21 C632.32,812.72 632.02,802.90 631.96,791.41 L 631.84 770.50 L 642.95 770.22 C656.83,769.86 660.30,771.16 663.25,777.83 C664.73,781.18 665.07,783.47 664.61,786.90 C663.40,795.88 657.79,800.00 646.75,800.00 L 640.00 800.00 L 639.88 805.50 C639.81,808.53 639.69,811.56 639.62,812.25 ZM 610.20 875.75 L 609.90 882.00 L 603.00 882.00 L 603.00 842.00 L 614.35 842.00 C624.51,842.00 626.06,842.24 629.10,844.28 C635.84,848.81 636.76,859.39 630.93,865.23 C629.32,866.84 628.00,868.50 628.00,868.92 C628.00,869.34 629.79,872.46 631.98,875.84 L 635.96 882.00 L 631.73 881.99 C627.61,881.98 627.41,881.82 624.03,875.95 C620.45,869.74 618.62,868.57 613.37,869.17 C610.59,869.49 610.49,869.69 610.20,875.75 ZM 412.20 875.75 L 411.90 882.00 L 405.00 882.00 L 405.00 842.00 L 416.35 842.00 C426.52,842.00 428.06,842.24 431.10,844.29 C437.68,848.71 438.64,859.86 432.88,864.92 C431.30,866.31 430.00,867.91 430.01,868.47 C430.01,869.04 431.80,872.31 433.98,875.75 L 437.95 882.00 L 433.68 882.00 C429.48,882.00 429.35,881.89 425.58,875.45 L 421.75 868.90 L 412.50 869.50 ZM 312.00 809.00 C310.44,813.03 309.88,813.53 306.72,813.80 C304.78,813.97 302.99,813.75 302.75,813.30 C302.51,812.86 306.40,802.94 311.40,791.25 L 320.48 770.00 L 328.81 770.00 L 331.85 777.25 C344.50,807.43 346.69,812.97 346.21,813.45 C345.91,813.75 344.13,814.00 342.25,814.00 C339.09,814.00 338.67,813.62 336.70,808.97 L 334.58 803.94 L 313.76 804.50 ZM 537.07 783.50 L 537.00 814.00 L 530.00 814.00 L 530.00 770.00 L 533.39 770.00 C536.59,770.00 537.40,770.82 547.64,784.46 C553.61,792.41 558.84,798.94 559.25,798.96 C559.66,798.98 560.00,792.47 560.00,784.50 L 560.00 770.00 L 567.50 770.00 L 567.21 792.00 L 566.93 814.00 L 564.21 813.98 C562.72,813.98 561.02,813.64 560.44,813.23 C559.85,812.83 555.48,807.33 550.72,801.00 C545.97,794.67 540.95,788.15 539.57,786.50 ZM 522.00 807.00 L 522.00 814.00 L 491.31 814.00 L 490.68 800.82 C490.33,793.57 490.33,783.67 490.67,778.82 L 491.30 770.00 L 521.00 770.00 L 521.00 777.00 L 499.00 777.00 L 499.00 788.00 L 519.00 788.00 L 519.00 795.00 L 509.12 795.00 C499.71,795.00 499.20,795.11 498.64,797.25 C498.32,798.49 498.33,801.19 498.66,803.25 L 499.26 807.00 ZM 426.81 810.28 L 426.50 813.50 L 411.44 813.78 C403.16,813.93 396.07,813.74 395.69,813.36 C395.31,812.98 395.00,803.07 395.00,791.33 L 395.00 770.00 L 426.00 770.00 L 426.00 777.00 L 403.00 777.00 L 403.00 787.72 L 408.61 788.30 C411.70,788.62 416.43,788.62 419.11,788.30 L 424.00 787.72 L 424.00 795.00 L 402.90 795.00 L 403.50 806.50 L 415.31 806.78 L 427.12 807.06 ZM 746.00 807.07 L 746.00 814.00 L 731.17 814.00 C723.01,814.00 716.03,813.70 715.67,813.33 C715.30,812.97 715.00,803.07 715.00,791.33 L 715.00 770.00 L 746.13 770.00 L 745.50 776.50 L 734.25 776.78 L 723.00 777.07 L 723.00 788.00 L 743.00 788.00 L 743.00 795.00 L 722.90 795.00 L 723.20 800.75 L 723.50 806.50 L 734.75 806.78 ZM 450.02 877.46 C448.23,881.62 447.78,882.00 444.54,882.00 C442.59,882.00 441.00,881.89 441.00,881.75 C441.01,881.61 444.79,872.72 449.42,862.00 L 457.83 842.50 L 465.45 842.50 L 473.68 861.50 C478.20,871.95 481.92,880.84 481.95,881.25 C481.98,881.66 480.24,882.00 478.08,882.00 C474.36,882.00 474.10,881.79 472.75,877.75 L 471.34 873.50 L 461.65 873.21 L 451.96 872.93 ZM 378.02 813.01 C372.44,814.56 367.89,814.16 362.49,811.65 C341.65,801.95 345.88,773.34 368.71,769.54 C374.20,768.63 382.80,771.09 385.99,774.49 L 388.40 777.05 L 386.22 779.22 L 384.05 781.40 L 380.14 779.20 C370.71,773.90 359.28,778.67 357.40,788.70 C355.95,796.40 360.78,803.66 369.00,806.12 C372.55,807.18 373.40,807.03 378.49,804.46 L 384.08 801.63 L 386.29 803.89 L 388.50 806.14 L 385.02 809.09 C383.10,810.71 379.95,812.47 378.02,813.01 ZM 534.00 876.58 L 534.00 882.00 L 527.00 882.00 L 526.86 875.25 C526.78,871.54 526.62,866.25 526.52,863.50 C526.41,860.75 526.54,854.79 526.81,850.25 L 527.30 842.00 L 533.93 842.00 L 534.21 851.70 L 534.50 861.39 L 543.00 851.71 C551.28,842.28 551.61,842.03 555.83,842.01 L 560.16 842.00 L 552.96 849.97 C548.91,854.46 545.99,858.53 546.28,859.30 C546.57,860.04 549.70,864.89 553.23,870.07 C556.77,875.26 559.99,880.06 560.39,880.75 C560.93,881.67 559.98,881.99 556.81,881.96 C552.54,881.92 552.45,881.84 546.71,873.46 C543.52,868.81 540.53,865.00 540.05,865.00 C539.57,865.00 538.01,866.38 536.59,868.08 C534.50,870.56 534.00,872.20 534.00,876.58 ZM 596.00 876.00 L 596.00 882.00 L 567.00 882.00 L 567.00 842.00 L 595.00 842.00 L 595.00 848.00 L 574.00 848.00 L 574.00 859.00 L 593.00 859.00 L 593.00 865.00 L 574.00 865.00 L 574.00 876.00 ZM 512.50 881.12 C499.22,887.22 484.00,876.73 484.00,861.49 C484.00,855.11 485.41,851.86 490.17,847.29 C497.83,839.93 509.74,839.14 517.46,845.48 L 520.43 847.92 L 518.07 850.43 L 515.71 852.94 L 512.78 850.47 C506.78,845.42 495.48,848.21 492.44,855.49 C489.42,862.72 491.70,870.02 498.24,874.01 C502.43,876.56 506.28,876.52 511.73,873.89 C515.92,871.86 516.17,871.85 518.06,873.55 C519.93,875.25 519.94,875.41 518.26,877.30 C517.29,878.39 514.70,880.11 512.50,881.12 ZM 594.77 795.25 L 594.50 813.50 L 591.46 813.80 C589.79,813.96 588.11,813.77 587.71,813.38 C587.32,812.99 587.00,804.66 587.00,794.88 L 587.00 777.09 L 580.25 776.80 L 573.50 776.50 L 572.87 770.00 L 608.00 770.00 L 608.00 777.00 L 595.05 777.00 ZM 300.00 807.07 L 300.00 814.00 L 285.67 814.00 C277.78,814.00 271.03,813.70 270.67,813.33 C270.30,812.97 270.00,803.07 270.00,791.33 L 270.00 770.00 L 277.95 770.00 L 278.50 806.50 L 289.25 806.78 ZM 387.00 848.00 L 387.00 882.00 L 380.00 882.00 L 380.00 848.00 L 367.00 848.00 L 367.00 842.00 L 400.00 842.00 L 400.00 848.00 ZM 237.67 792.33 C238.03,792.70 240.98,793.00 244.21,793.00 C251.48,793.00 255.00,790.24 255.00,784.55 C255.00,778.82 252.35,777.00 244.00,777.00 L 237.00 777.00 L 237.00 784.33 C237.00,788.37 237.30,791.97 237.67,792.33 ZM 680.75 792.43 C682.04,793.74 692.63,792.47 695.38,790.67 C697.51,789.28 698.00,788.18 698.00,784.81 C698.00,778.39 696.11,777.00 687.35,777.00 L 680.00 777.00 L 680.00 784.33 C680.00,788.37 680.34,792.01 680.75,792.43 ZM 639.42 791.64 C639.78,792.59 641.90,793.00 646.47,793.00 C654.52,793.00 657.00,791.12 657.00,785.00 C657.00,778.68 654.46,776.84 646.21,777.21 L 639.50 777.50 L 639.20 783.89 C639.03,787.41 639.13,790.90 639.42,791.64 ZM 762.00 777.00 L 762.00 793.00 L 767.92 793.00 C771.17,793.00 774.56,792.72 775.46,792.38 C777.96,791.42 780.26,786.17 779.50,783.14 C778.25,778.13 776.30,777.00 768.85,777.00 ZM 610.00 848.00 L 610.00 863.00 L 616.93 863.00 C623.28,863.00 624.03,862.77 626.01,860.27 C627.57,858.27 628.00,856.71 627.58,854.52 C626.65,849.70 623.73,848.00 616.39,848.00 ZM 412.99 860.75 C413.00,862.83 413.45,863.00 418.89,863.00 C426.46,863.00 429.40,860.90 429.40,855.50 C429.40,849.95 426.50,848.00 418.25,848.00 L 411.72 848.00 L 412.35 853.25 C412.70,856.14 412.99,859.51 412.99,860.75 ZM 320.15 789.25 L 317.17 797.00 L 324.09 797.00 C327.89,797.00 331.00,796.66 331.01,796.25 C331.02,794.10 324.61,780.00 323.93,780.69 C323.49,781.13 321.79,784.99 320.15,789.25 ZM 455.31 865.25 C454.83,866.79 455.54,867.00 461.38,867.00 C465.02,867.00 468.00,866.74 468.00,866.43 C468.00,864.94 461.70,850.96 461.24,851.43 C460.65,852.01 456.15,862.50 455.31,865.25 Z" fill="rgb(38,85,117)"/>
<path d="M 424.00 604.78 C427.02,606.46 429.91,607.88 430.41,607.92 C430.91,607.96 426.40,602.94 420.39,596.75 C419.21,595.54 418.05,594.34 416.91,593.15 C435.10,612.09 455.98,630.56 480.53,649.57 C481.54,650.35 482.69,651.21 483.95,652.12 C477.77,648.08 475.35,647.09 472.82,647.05 C467.93,646.96 446.99,641.06 435.16,636.43 C410.43,626.76 390.68,614.76 367.51,595.32 C362.01,590.70 355.98,585.70 354.13,584.21 C349.58,580.55 332.51,559.19 326.76,549.96 C320.52,539.96 309.97,517.65 306.11,506.30 C295.53,475.24 291.70,439.17 295.51,406.56 C297.25,391.70 301.11,373.58 304.61,363.89 C305.93,360.22 306.80,356.60 306.54,355.85 C306.48,355.66 306.40,355.37 306.31,355.01 C306.94,354.90 308.43,352.10 309.97,347.86 C313.03,339.46 319.78,325.79 324.47,318.50 C325.50,316.89 326.47,315.39 327.37,313.99 C324.19,319.30 321.56,324.83 321.46,326.47 C321.29,329.37 316.66,341.64 312.97,349.00 C309.53,355.86 302.93,378.23 300.98,389.62 C298.41,404.66 298.41,406.39 301.00,405.71 C302.10,405.42 302.75,405.59 302.44,406.09 C302.13,406.59 302.59,407.00 303.46,407.00 C304.60,407.00 304.91,407.70 304.59,409.50 C304.09,412.26 305.17,412.53 312.17,411.37 C316.12,410.72 316.20,410.39 314.08,403.71 C313.52,401.94 312.11,394.07 310.94,386.20 C308.94,372.80 308.92,367.00 310.87,367.00 C312.29,367.00 317.78,361.27 318.48,359.05 C319.29,356.50 323.11,352.37 324.50,352.55 C325.05,352.62 326.17,352.95 327.00,353.29 C330.33,354.66 331.75,354.38 334.88,351.75 C336.68,350.24 337.88,349.00 337.54,349.00 C337.20,349.00 337.43,348.44 338.04,347.75 C338.66,347.06 341.10,342.90 343.46,338.50 C346.18,333.43 348.29,330.59 349.23,330.76 C350.09,330.91 352.67,328.04 355.51,323.76 C356.40,322.40 357.32,321.06 358.25,319.73 C352.78,327.75 347.89,336.41 342.99,346.50 C330.34,372.57 325.28,393.14 324.29,422.50 L 323.76 438.50 L 328.88 452.11 C327.97,449.83 327.23,448.00 326.82,447.00 L 324.93 442.50 L 325.40 451.03 C326.86,477.48 339.10,512.24 356.03,538.00 C365.99,553.16 370.46,558.43 388.49,576.25 C404.70,592.28 411.72,597.92 424.00,604.78 ZM 701.86 427.53 C702.85,428.51 721.47,426.76 722.27,425.61 C723.74,423.49 721.06,398.76 717.87,385.00 C714.69,371.28 704.39,341.10 701.32,336.53 C700.59,335.44 700.00,333.57 700.00,332.36 C700.00,331.15 699.38,328.89 698.62,327.33 C697.86,325.77 696.41,322.70 695.38,320.50 C693.70,316.89 689.32,310.06 684.72,303.48 C689.47,310.16 694.00,316.96 694.00,317.56 C694.00,317.78 695.40,320.24 697.10,323.01 C698.81,325.79 702.42,333.11 705.12,339.28 C707.82,345.45 710.45,351.40 710.95,352.50 C711.45,353.60 712.44,356.19 713.13,358.25 C713.83,360.31 714.68,362.00 715.03,362.00 C715.71,362.00 716.92,355.66 718.22,346.46 C717.64,350.61 717.06,354.25 716.53,357.08 C715.20,364.16 715.24,365.09 717.10,371.08 C727.28,403.76 728.77,446.13 720.96,481.17 C714.75,509.05 699.00,544.51 687.65,556.16 C684.85,559.04 683.23,561.02 684.03,560.56 C684.84,560.11 684.09,561.03 682.36,562.62 C680.63,564.20 675.18,570.22 670.24,576.00 C661.31,586.45 656.73,590.98 645.48,600.50 C624.15,618.56 598.32,633.00 574.00,640.47 C565.68,643.02 553.15,646.00 550.69,646.01 C548.60,646.01 547.68,646.40 538.67,652.71 C556.54,639.39 584.85,614.61 603.87,595.68 C597.69,601.99 593.27,607.00 593.90,607.00 C595.60,607.00 612.37,596.34 621.17,589.68 C636.12,578.36 661.00,551.56 661.00,546.78 C661.00,545.94 664.36,539.49 668.47,532.44 C679.59,513.40 687.43,493.59 691.97,473.10 C693.96,464.08 695.65,451.14 694.72,452.00 C694.47,452.23 692.62,456.56 690.34,462.18 C694.87,450.78 694.99,450.06 696.05,442.50 C697.41,432.87 695.67,403.51 693.04,391.50 C690.81,381.36 687.78,369.32 686.99,367.50 C686.52,366.40 685.14,362.58 683.93,359.00 C682.72,355.42 679.54,348.12 676.86,342.77 C672.93,334.89 671.99,332.03 671.97,327.77 C671.91,318.24 667.72,293.85 664.14,282.25 C663.59,280.46 663.48,279.00 663.90,279.00 C664.78,279.00 669.03,283.44 673.73,289.08 C672.77,288.01 672.00,287.27 671.50,286.95 C669.64,285.76 669.60,285.80 671.00,287.53 C672.37,289.21 672.34,289.31 670.63,288.67 C668.91,288.03 668.83,288.34 669.60,292.74 C670.06,295.36 670.38,299.30 670.33,301.50 C670.25,304.62 670.43,305.06 671.12,303.50 C671.68,302.23 671.79,304.02 671.41,308.37 C671.00,313.17 671.14,315.03 671.90,314.56 C672.65,314.10 672.81,315.80 672.41,320.20 C671.98,324.87 672.12,326.11 672.92,325.00 C673.75,323.86 673.97,324.83 673.86,329.04 C673.71,334.29 675.44,339.89 676.78,338.55 C677.63,337.70 684.48,351.67 688.03,361.50 C689.63,365.90 692.58,376.25 694.61,384.50 C696.63,392.75 698.67,399.65 699.14,399.83 C699.61,400.02 700.01,401.14 700.02,402.33 C700.03,404.97 700.97,406.45 703.14,407.25 C704.53,407.76 704.63,408.57 703.83,412.67 C701.92,422.44 701.32,426.98 701.86,427.53 ZM 466.00 461.62 L 466.00 414.00 L 498.74 414.00 L 508.15 402.75 C517.28,391.82 520.25,388.03 532.49,371.72 L 538.06 364.29 C540.50,367.86 542.15,372.17 543.03,377.28 C544.75,387.13 541.95,397.55 535.31,406.00 L 532.56 409.50 L 535.41 407.00 C536.98,405.62 539.07,403.20 540.06,401.60 C541.40,399.44 542.70,398.66 545.18,398.52 C547.01,398.43 551.20,397.58 554.50,396.64 C562.57,394.35 575.51,393.35 577.35,394.87 C579.10,396.33 577.88,402.93 574.37,410.87 C573.07,413.83 572.00,416.49 572.00,416.78 C572.00,418.79 576.31,412.79 577.86,408.61 C578.72,406.30 579.47,404.06 580.09,401.83 C575.69,418.33 566.04,432.04 551.31,442.60 C540.71,450.21 527.78,454.70 512.02,456.26 C510.21,456.43 507.57,459.04 502.17,466.00 C496.02,473.94 483.39,489.38 475.14,499.20 C476.14,497.95 477.01,496.81 477.55,496.00 C478.86,494.08 480.95,491.15 482.20,489.50 L 484.47 486.50 L 481.08 489.32 C479.21,490.87 475.89,494.39 473.70,497.14 C468.92,503.14 468.04,502.47 468.02,492.81 C468.01,489.13 467.55,485.84 467.00,485.50 C466.52,485.20 466.21,487.41 466.09,491.84 C466.02,484.86 466.00,475.11 466.00,461.62 ZM 414.58 565.81 C413.90,561.59 414.59,415.10 415.35,352.22 C415.51,353.83 415.73,354.42 416.00,354.00 C416.86,352.67 416.98,352.67 417.04,354.00 C417.08,354.83 417.48,363.41 417.92,373.07 C418.37,382.73 419.21,391.52 419.79,392.61 C421.61,396.01 425.44,397.47 428.84,396.07 C430.45,395.40 434.83,394.83 438.57,394.81 C446.42,394.77 448.40,396.27 447.55,401.62 C447.08,404.59 447.27,404.83 450.59,405.45 L 454.13 406.11 L 453.99 413.31 C453.92,417.26 453.99,425.00 454.16,430.50 C454.32,436.00 454.59,430.83 454.75,419.01 C454.94,405.02 454.68,397.39 454.02,397.17 C453.43,396.98 453.00,393.11 453.00,387.97 C453.00,380.20 453.49,376.08 455.58,366.17 C456.00,364.23 452.85,360.59 436.35,343.92 L 456.00 363.77 L 455.99 442.64 L 455.98 521.50 L 455.89 503.50 C455.79,484.05 454.90,476.73 453.69,485.39 C453.31,488.08 453.00,496.90 453.00,505.00 L 453.00 519.72 L 448.75 524.61 C446.41,527.30 444.16,529.95 443.75,530.50 C442.59,532.05 429.39,548.77 423.66,555.96 L 418.50 562.41 L 417.85 523.46 C417.46,500.52 416.77,483.47 416.16,482.00 C415.43,480.22 415.11,492.67 415.06,524.95 C415.03,551.21 415.32,568.00 415.83,569.37 C415.41,569.21 414.90,567.79 414.58,565.81 ZM 512.00 518.55 L 512.00 466.09 L 515.25 465.62 C533.67,462.97 544.16,459.24 556.56,450.93 C564.85,445.37 576.40,433.34 580.12,426.39 L 582.74 421.50 L 593.87 421.22 C601.79,421.02 605.00,421.27 605.00,422.09 C605.00,423.84 587.93,451.71 584.47,455.60 L 581.45 459.00 L 553.00 459.00 L 553.00 538.95 L 552.99 521.72 C552.99,512.25 552.67,501.35 552.29,497.50 C551.63,490.76 551.57,490.65 550.86,494.50 C550.45,496.70 550.09,507.16 550.06,517.74 L 550.00 536.98 L 547.25 539.40 C544.93,541.45 530.79,553.13 519.39,562.42 C517.68,563.81 515.99,564.66 515.64,564.31 C515.29,563.96 514.96,546.98 514.90,526.58 C514.85,506.19 514.44,488.38 514.00,487.00 C513.56,485.62 513.15,503.97 513.10,527.78 L 513.00 570.70 C512.73,570.90 512.57,571.00 512.53,571.00 C512.24,571.00 512.00,547.40 512.00,518.55 ZM 451.11 219.22 C474.04,212.61 498.73,209.04 516.12,210.32 C520.73,210.65 528.10,211.19 532.50,211.51 C536.90,211.84 542.08,212.50 544.00,212.99 C545.92,213.48 550.42,214.42 554.00,215.07 C573.91,218.73 603.73,229.58 615.14,237.32 C616.99,238.57 620.41,240.67 622.75,241.98 C626.98,244.35 628.18,246.00 625.70,246.00 C624.98,246.00 623.97,245.59 623.45,245.09 C621.78,243.50 598.45,236.04 587.29,233.53 C571.00,229.86 556.12,228.64 536.08,229.32 C526.41,229.64 516.70,230.32 514.50,230.83 C512.30,231.33 507.12,232.28 503.00,232.93 C479.30,236.70 475.50,237.52 462.50,241.68 C454.87,244.12 447.59,246.91 440.58,250.11 C445.74,247.68 451.00,245.49 456.32,243.54 C458.98,242.57 461.38,241.18 461.66,240.44 C462.80,237.47 484.74,232.64 521.00,227.38 C543.69,224.08 581.33,227.35 602.50,234.45 C603.60,234.82 602.92,234.24 601.00,233.17 C596.09,230.44 574.07,222.57 564.47,220.12 C529.97,211.31 492.25,211.07 457.75,219.43 C454.58,220.19 452.25,220.41 452.56,219.91 C453.02,219.16 452.76,218.89 451.11,219.22 ZM 647.97 326.61 C648.50,317.03 648.83,305.84 648.51,302.37 C647.92,295.94 649.15,270.05 650.57,259.25 C651.01,255.84 650.82,255.00 649.58,255.00 C648.08,255.00 641.93,256.72 621.83,262.77 C616.42,264.39 610.83,265.48 609.15,265.23 C607.78,265.03 604.36,265.54 600.94,266.40 C605.75,264.98 610.67,263.49 612.00,263.05 C613.38,262.60 616.53,261.65 619.00,260.94 C621.47,260.23 623.93,259.28 624.45,258.83 C624.97,258.37 626.08,258.00 626.92,258.00 C628.69,258.00 641.76,254.21 644.04,253.04 C644.88,252.60 647.54,251.92 649.93,251.51 L 654.29 250.77 L 653.61 257.64 C653.24,261.41 652.54,269.45 652.05,275.50 C651.57,281.55 650.47,295.27 649.60,306.00 C649.04,313.02 648.42,320.80 647.97,326.61 ZM 509.00 402.61 C509.00,402.96 509.56,402.79 510.25,402.24 C510.94,401.68 513.43,400.91 515.78,400.52 C518.14,400.13 521.29,398.80 522.78,397.56 C524.28,396.32 526.85,394.66 528.50,393.88 C531.81,392.30 532.16,389.89 530.36,381.03 L 529.45 376.56 L 519.23 389.27 C513.60,396.25 509.00,402.26 509.00,402.61 ZM 450.56 344.80 L 437.84 332.19 C422.34,316.82 418.37,312.37 419.57,311.70 C420.41,311.23 444.81,311.04 473.80,311.27 L 475.31 311.28 C454.57,311.63 434.04,312.41 435.13,313.10 C436.00,313.65 434.39,313.98 430.75,313.98 C427.59,313.99 425.00,314.37 425.00,314.81 C425.00,315.26 426.39,316.95 428.09,318.56 C429.78,320.18 431.66,322.40 432.25,323.50 C433.25,325.35 433.19,325.39 431.41,324.03 C430.20,323.10 430.37,323.54 431.90,325.25 C433.21,326.73 434.69,327.69 435.17,327.39 C435.65,327.10 435.93,327.29 435.77,327.83 C435.62,328.36 440.38,333.98 446.34,340.32 ZM 415.75 441.42 C416.87,442.54 417.19,397.67 416.08,394.89 C415.43,393.27 415.11,400.22 415.06,416.58 C415.03,429.83 415.34,441.00 415.75,441.42 ZM 466.75 423.61 L 467.50 428.50 L 468.00 422.60 C468.40,417.89 468.90,416.53 470.50,415.92 C472.12,415.29 471.88,415.13 469.25,415.07 C465.61,414.99 465.49,415.39 466.75,423.61 ZM 335.52 301.54 C339.13,296.19 341.26,293.37 344.09,289.97 C358.44,272.67 374.59,258.06 392.44,246.22 C370.48,260.94 350.82,279.92 335.52,301.54 ZM 332.99 462.62 C339.86,479.16 350.90,501.99 359.41,517.31 C350.33,501.08 338.57,477.05 333.53,464.00 C333.35,463.54 333.17,463.08 332.99,462.62 ZM 636.87 557.87 C656.53,531.95 673.36,502.85 686.15,472.52 C673.23,503.31 656.77,531.83 636.87,557.87 ZM 368.19 531.86 C380.95,551.52 395.19,569.83 411.71,587.64 C394.44,569.07 381.31,552.23 368.19,531.86 ZM 315.00 362.00 C315.00,362.55 314.55,363.00 314.00,363.00 C313.45,363.00 313.00,362.55 313.00,362.00 C313.00,361.45 313.45,361.00 314.00,361.00 C314.55,361.00 315.00,361.45 315.00,362.00 ZM 400.60 274.88 C395.14,279.27 389.75,284.04 384.40,289.22 C379.89,293.59 375.80,297.83 372.03,302.08 C380.70,292.13 390.29,283.01 400.60,274.88 ZM 528.33 312.70 C534.79,313.52 537.89,314.88 543.22,317.29 C545.16,318.16 547.12,319.17 549.05,320.30 C547.26,319.30 545.41,318.36 543.49,317.48 C538.16,315.04 533.96,313.61 528.33,312.70 ZM 565.45 333.09 C568.08,335.80 570.36,338.59 572.15,341.36 C573.24,343.05 574.63,345.60 575.95,348.28 C573.07,342.60 569.57,337.54 565.45,333.09 ZM 299.67 286.24 C300.21,298.88 301.09,312.08 302.20,323.78 C301.93,321.22 301.69,318.69 301.48,316.26 C300.70,307.56 300.08,296.88 299.67,286.24 ZM 308.68 364.81 C308.97,365.53 308.94,366.40 308.60,366.73 C308.27,367.06 308.04,366.47 308.08,365.42 C308.13,364.25 308.36,364.01 308.68,364.81 ZM 646.41 342.00 C646.19,342.00 641.61,337.75 636.17,332.50 C641.54,337.68 646.08,341.76 646.52,341.79 C646.48,341.93 646.44,342.00 646.41,342.00 ZM 415.94 324.07 C415.95,324.02 415.96,324.00 415.97,324.00 C416.33,324.00 425.49,332.95 436.31,343.89 C426.02,333.49 417.18,324.89 415.94,324.07 ZM 524.40 353.93 C520.51,352.58 515.45,352.47 489.57,352.18 L 478.49 352.06 L 489.34 352.17 C515.63,352.45 520.58,352.56 524.40,353.93 ZM 304.25 341.62 C304.33,342.17 304.41,342.71 304.49,343.24 C305.00,346.67 305.46,349.86 305.73,351.92 C305.30,349.34 304.78,345.75 304.25,341.62 ZM 467.34 508.12 L 470.64 504.50 C470.68,504.45 470.72,504.40 470.77,504.35 C469.00,506.41 467.79,507.76 467.42,508.07 C467.39,508.09 467.37,508.11 467.34,508.12 ZM 416.01 569.35 C417.09,568.14 426.04,557.46 436.41,545.00 C425.65,557.92 416.50,568.87 416.06,569.31 C416.05,569.33 416.03,569.34 416.01,569.35 ZM 530.00 356.68 C530.44,356.95 530.87,357.23 531.29,357.52 C530.87,357.23 530.44,356.95 530.00,356.68 Z" fill="rgb(174,121,40)"/>
<path d="M 451.11 219.22 C452.76,218.89 453.02,219.16 452.56,219.91 C452.25,220.41 454.58,220.19 457.75,219.43 C492.25,211.07 529.97,211.31 564.47,220.12 C574.07,222.57 596.09,230.44 601.00,233.17 C602.92,234.24 603.60,234.82 602.50,234.45 C581.33,227.35 543.69,224.08 521.00,227.38 C484.74,232.64 462.80,237.47 461.66,240.44 C461.38,241.18 458.98,242.57 456.32,243.54 C451.00,245.49 445.74,247.68 440.58,250.11 C426.38,256.58 413.27,264.71 400.60,274.88 C390.29,283.01 380.70,292.13 372.03,302.08 C366.93,307.83 362.42,313.59 358.25,319.73 C357.32,321.06 356.40,322.40 355.51,323.76 C352.67,328.04 350.09,330.91 349.23,330.76 C348.29,330.59 346.18,333.43 343.46,338.50 C341.10,342.90 338.66,347.06 338.04,347.75 C337.43,348.44 337.20,349.00 337.54,349.00 C337.88,349.00 336.68,350.24 334.88,351.75 C331.75,354.38 330.33,354.66 327.00,353.29 C326.17,352.95 325.05,352.62 324.50,352.55 C323.11,352.37 319.29,356.50 318.48,359.05 C317.78,361.27 312.29,367.00 310.87,367.00 C308.92,367.00 308.94,372.80 310.94,386.20 C312.11,394.07 313.52,401.94 314.08,403.71 C316.20,410.39 316.12,410.72 312.17,411.37 C305.17,412.53 304.09,412.26 304.59,409.50 C304.91,407.70 304.60,407.00 303.46,407.00 C302.59,407.00 302.13,406.59 302.44,406.09 C302.75,405.59 302.10,405.42 301.00,405.71 C298.41,406.39 298.41,404.66 300.98,389.62 C302.93,378.23 309.53,355.86 312.97,349.00 C316.66,341.64 321.29,329.37 321.46,326.47 C321.56,324.83 324.19,319.30 327.37,313.99 C330.86,308.59 333.44,304.64 335.52,301.54 C350.82,279.92 370.48,260.94 392.44,246.22 C402.68,239.42 413.49,233.53 424.84,228.57 C432.91,225.04 441.87,221.88 451.11,219.22 ZM 450.56 344.80 L 446.34 340.32 C440.38,333.98 435.62,328.36 435.77,327.83 C435.93,327.29 435.65,327.10 435.17,327.39 C434.69,327.69 433.21,326.73 431.90,325.25 C430.37,323.54 430.20,323.10 431.41,324.03 C433.19,325.39 433.25,325.35 432.25,323.50 C431.66,322.40 429.78,320.18 428.09,318.56 C426.39,316.95 425.00,315.26 425.00,314.81 C425.00,314.37 427.59,313.99 430.75,313.98 C434.39,313.98 436.00,313.65 435.13,313.10 C434.04,312.41 454.57,311.63 475.31,311.28 C506.29,311.53 520.06,311.66 528.33,312.70 C533.96,313.61 538.16,315.04 543.49,317.48 C545.41,318.36 547.26,319.30 549.05,320.30 C555.00,323.76 560.77,328.27 565.45,333.09 C569.57,337.54 573.06,342.60 575.95,348.28 L 575.95 348.28 C577.14,350.70 578.28,353.23 579.11,355.36 C581.86,362.44 582.34,365.08 582.77,375.62 C583.15,385.00 582.25,393.75 580.09,401.83 L 580.09 401.83 C579.46,404.06 578.72,406.30 577.86,408.61 C576.31,412.79 572.00,418.79 572.00,416.78 C572.00,416.49 573.07,413.83 574.37,410.87 C577.88,402.93 579.10,396.33 577.35,394.87 C575.51,393.35 562.57,394.35 554.50,396.64 C551.20,397.58 547.01,398.43 545.18,398.52 C542.70,398.66 541.40,399.44 540.06,401.60 C539.07,403.20 536.98,405.62 535.41,407.00 L 532.56 409.50 L 535.31 406.00 C541.95,397.55 544.75,387.13 543.03,377.28 C542.15,372.17 540.50,367.86 538.06,364.29 L 538.33 363.93 L 535.03 360.53 C534.14,359.62 532.78,358.53 531.29,357.52 C530.87,357.23 530.44,356.95 530.00,356.68 C528.84,355.95 527.66,355.30 526.62,354.83 C525.83,354.48 525.14,354.18 524.40,353.93 C520.58,352.56 515.63,352.45 489.34,352.17 L 478.49 352.06 L 457.64 351.83 ZM 591.59 361.86 C585.61,343.07 582.98,337.93 574.10,327.85 L 570.10 323.30 L 577.21 313.90 C581.12,308.73 586.03,302.49 588.11,300.04 C589.81,298.04 590.92,296.88 590.96,295.69 C591.02,293.83 588.45,291.89 581.38,286.54 C580.88,286.17 580.36,285.78 579.82,285.36 C574.49,281.33 569.88,277.61 569.56,277.09 C569.02,276.22 577.43,273.35 600.50,266.53 L 600.94 266.40 C604.36,265.54 607.78,265.03 609.15,265.23 C610.83,265.48 616.42,264.39 621.83,262.77 C641.93,256.72 648.08,255.00 649.58,255.00 C650.82,255.00 651.01,255.84 650.57,259.25 C649.15,270.05 647.92,295.94 648.51,302.37 C648.83,305.84 648.50,317.03 647.97,326.61 C647.73,329.67 647.54,332.18 647.43,333.75 C647.14,337.66 646.76,340.96 646.52,341.79 C646.08,341.76 641.54,337.68 636.17,332.50 L 636.00 332.33 L 635.91 332.25 C630.36,326.89 625.30,322.40 624.66,322.28 C623.50,322.05 620.05,326.29 601.78,350.36 C596.25,357.65 591.84,362.63 591.59,361.86 ZM 701.86 427.53 C701.32,426.98 701.92,422.44 703.83,412.67 C704.63,408.57 704.53,407.76 703.14,407.25 C700.97,406.45 700.03,404.97 700.02,402.33 C700.01,401.14 699.61,400.02 699.14,399.83 C698.67,399.65 696.63,392.75 694.61,384.50 C692.58,376.25 689.63,365.90 688.03,361.50 C684.48,351.67 677.63,337.70 676.78,338.55 C675.44,339.89 673.71,334.29 673.86,329.04 C673.97,324.83 673.75,323.86 672.92,325.00 C672.12,326.11 671.98,324.87 672.41,320.20 C672.81,315.80 672.65,314.10 671.90,314.56 C671.14,315.03 671.00,313.17 671.41,308.37 C671.79,304.02 671.68,302.23 671.12,303.50 C670.43,305.06 670.25,304.62 670.33,301.50 C670.38,299.30 670.06,295.36 669.60,292.74 C668.83,288.34 668.91,288.03 670.63,288.67 C672.34,289.31 672.37,289.21 671.00,287.53 C669.60,285.80 669.64,285.76 671.50,286.95 C672.00,287.27 672.77,288.01 673.73,289.08 C675.68,291.42 677.72,293.97 679.62,296.50 C681.21,298.60 682.98,301.04 684.72,303.48 C689.32,310.06 693.70,316.89 695.38,320.50 C696.41,322.70 697.86,325.77 698.62,327.33 C699.38,328.89 700.00,331.15 700.00,332.36 C700.00,333.57 700.59,335.44 701.32,336.53 C704.39,341.10 714.69,371.28 717.87,385.00 C721.06,398.76 723.74,423.49 722.27,425.61 C721.47,426.76 702.85,428.51 701.86,427.53 ZM 415.94 324.07 C417.18,324.89 426.02,333.49 436.31,343.89 L 436.35 343.92 C452.85,360.59 456.00,364.23 455.58,366.17 C453.49,376.08 453.00,380.20 453.00,387.97 C453.00,393.11 453.43,396.98 454.02,397.17 C454.68,397.39 454.94,405.02 454.75,419.01 C454.59,430.83 454.32,436.00 454.16,430.50 C453.99,425.00 453.92,417.26 453.99,413.31 L 454.13 406.11 L 450.59 405.45 C447.27,404.83 447.08,404.59 447.55,401.62 C448.40,396.27 446.42,394.77 438.57,394.81 C434.83,394.83 430.45,395.40 428.84,396.07 C425.44,397.47 421.61,396.01 419.79,392.61 C419.21,391.52 418.37,382.73 417.92,373.07 C417.48,363.41 417.08,354.83 417.04,354.00 C416.98,352.67 416.86,352.67 416.00,354.00 C415.73,354.42 415.51,353.83 415.35,352.22 C415.55,335.73 415.76,324.99 415.94,324.07 ZM 416.01 569.35 C415.96,569.39 415.89,569.40 415.83,569.37 C415.32,568.00 415.03,551.21 415.06,524.95 C415.11,492.67 415.43,480.22 416.16,482.00 C416.77,483.47 417.46,500.52 417.85,523.46 L 418.50 562.41 L 423.66 555.96 C429.39,548.77 442.59,532.05 443.75,530.50 C444.16,529.95 446.41,527.30 448.75,524.61 L 453.00 519.72 L 453.00 505.00 C453.00,496.90 453.31,488.08 453.69,485.39 C454.90,476.73 455.79,484.05 455.89,503.50 L 455.98 521.50 L 436.41 545.00 C426.04,557.46 417.09,568.14 416.01,569.35 ZM 533.50 656.45 C535.10,655.33 536.83,654.08 538.67,652.71 C547.68,646.40 548.60,646.01 550.69,646.01 C553.15,646.00 565.68,643.02 574.00,640.47 C598.32,633.00 624.15,618.56 645.48,600.50 C656.73,590.98 661.31,586.45 670.24,576.00 C675.18,570.22 680.63,564.20 682.36,562.62 C684.09,561.03 684.84,560.11 684.03,560.56 C683.23,561.02 684.85,559.04 687.65,556.16 C690.14,553.61 692.85,549.90 695.61,545.38 C679.21,573.59 656.82,597.89 629.87,615.96 C605.85,632.07 584.31,641.67 559.22,647.45 C553.13,648.85 546.96,650.00 545.50,650.00 C543.89,650.00 539.29,652.47 533.68,656.35 C528.63,659.84 521.76,664.29 518.39,666.23 C521.76,664.29 528.55,659.88 533.50,656.45 ZM 329.01 553.38 C336.08,563.64 350.08,580.95 354.13,584.21 C355.98,585.70 362.01,590.70 367.51,595.32 C390.68,614.76 410.43,626.76 435.16,636.43 C446.99,641.06 467.93,646.96 472.82,647.05 C475.35,647.09 477.77,648.08 483.95,652.12 C487.07,654.38 490.84,656.95 494.52,659.36 C493.33,658.58 492.16,657.81 491.07,657.07 C482.63,651.37 481.04,650.67 476.07,650.43 C470.06,650.13 451.18,645.49 440.25,641.63 C417.22,633.48 395.43,621.24 375.00,604.97 C365.80,597.65 343.00,574.88 343.00,573.03 C343.00,572.41 340.58,568.88 337.62,565.20 C334.49,561.30 331.69,557.47 329.01,553.38 ZM 552.99 521.72 L 553.00 538.95 L 533.03 554.97 C523.35,562.74 515.04,569.27 513.00,570.70 L 513.10 527.78 C513.15,503.97 513.56,485.62 514.00,487.00 C514.44,488.38 514.85,506.19 514.90,526.58 C514.96,546.98 515.29,563.96 515.64,564.31 C515.99,564.66 517.68,563.81 519.39,562.42 C530.79,553.13 544.93,541.45 547.25,539.40 L 550.00 536.98 L 550.06 517.74 C550.09,507.16 550.45,496.70 550.86,494.50 C551.57,490.65 551.63,490.76 552.29,497.50 C552.67,501.35 552.99,512.25 552.99,521.72 ZM 636.87 557.87 L 636.88 557.87 C640.20,553.45 640.65,552.84 641.09,552.24 C632.49,564.10 623.33,575.32 613.79,585.63 C609.78,589.97 605.60,594.57 604.50,595.87 C602.70,598.00 603.02,597.93 607.79,595.12 C610.70,593.41 615.65,590.15 618.79,587.87 C626.84,582.03 652.73,555.66 657.44,548.49 C659.61,545.20 662.35,541.38 663.54,540.00 C664.42,538.99 665.62,537.23 667.01,534.99 C667.48,534.15 667.97,533.30 668.47,532.44 C674.68,521.80 679.87,510.93 684.03,499.82 C687.22,491.13 689.95,482.03 691.80,473.86 C689.82,482.64 687.23,491.30 684.03,499.82 C682.75,503.31 681.40,506.73 680.01,510.00 C676.71,517.72 671.08,528.40 667.01,534.99 C663.59,540.98 661.00,546.04 661.00,546.78 C661.00,551.56 636.12,578.36 621.17,589.68 C612.37,596.34 595.60,607.00 593.90,607.00 C593.27,607.00 597.69,601.99 603.87,595.68 C606.35,593.21 608.68,590.85 610.80,588.62 C619.92,579.02 628.64,568.73 636.87,557.87 ZM 509.00 402.61 C509.00,402.26 513.60,396.25 519.23,389.27 L 529.45 376.56 L 530.36 381.03 C532.16,389.89 531.81,392.30 528.50,393.88 C526.85,394.66 524.28,396.32 522.78,397.56 C521.29,398.80 518.14,400.13 515.78,400.52 C513.43,400.91 510.94,401.68 510.25,402.24 C509.56,402.79 509.00,402.96 509.00,402.61 ZM 795.99 767.62 C794.98,768.65 793.74,771.53 793.23,774.00 L 792.30 778.50 L 791.02 773.72 C789.63,768.52 786.38,765.23 781.68,764.29 C778.93,763.74 779.02,763.65 783.66,762.11 C788.26,760.58 788.61,760.21 790.69,754.50 C791.90,751.20 792.91,749.40 792.95,750.50 C792.98,751.60 793.46,754.12 794.01,756.09 C795.08,759.94 797.21,761.39 803.62,762.59 L 807.41 763.30 L 802.62 764.52 C799.98,765.19 797.00,766.58 795.99,767.62 ZM 424.00 604.78 C411.72,597.92 404.70,592.28 388.49,576.25 C370.84,558.80 366.19,553.38 356.65,538.93 C371.57,561.32 393.45,582.66 415.00,595.80 C418.58,597.98 421.66,599.62 421.85,599.45 C422.05,599.27 417.13,593.59 410.92,586.82 C409.56,585.34 408.22,583.86 406.90,582.39 C408.47,584.13 410.07,585.87 411.71,587.63 L 411.71 587.64 C413.42,589.48 415.15,591.31 416.91,593.15 L 416.91 593.15 C418.05,594.34 419.21,595.54 420.39,596.75 C426.40,602.94 430.91,607.96 430.41,607.92 C429.91,607.88 427.02,606.46 424.00,604.78 ZM 526.62 708.71 C525.42,709.91 500.66,710.21 499.00,709.05 C497.76,708.18 497.73,707.85 498.85,707.13 C501.01,705.74 513.98,704.96 520.25,705.85 C526.15,706.69 527.87,707.46 526.62,708.71 ZM 467.34 508.12 C466.58,508.57 466.24,505.62 466.09,491.84 C466.21,487.41 466.52,485.20 467.00,485.50 C467.55,485.84 468.01,489.13 468.02,492.81 C468.04,502.47 468.92,503.14 473.70,497.14 C475.89,494.39 479.21,490.87 481.08,489.32 L 484.47 486.50 L 482.20 489.50 C480.95,491.15 478.86,494.08 477.55,496.00 C477.01,496.81 476.14,497.95 475.14,499.20 C473.48,501.18 471.99,502.94 470.77,504.35 C470.72,504.40 470.68,504.45 470.64,504.50 ZM 415.75 441.42 C415.34,441.00 415.03,429.83 415.06,416.58 C415.11,400.22 415.43,393.27 416.08,394.89 C417.19,397.67 416.87,442.54 415.75,441.42 ZM 466.75 423.61 C465.49,415.39 465.61,414.99 469.25,415.07 C471.88,415.13 472.12,415.29 470.50,415.92 C468.90,416.53 468.40,417.89 468.00,422.60 L 467.50 428.50 ZM 296.05 402.34 C297.78,388.10 300.68,374.78 304.61,363.89 C301.44,372.68 297.97,388.40 296.05,402.34 ZM 723.83 465.10 C725.62,452.03 726.26,438.36 725.76,424.84 C726.30,437.32 725.90,449.64 724.46,460.63 C724.27,462.12 724.06,463.61 723.83,465.10 ZM 315.00 362.00 C315.00,361.45 314.55,361.00 314.00,361.00 C313.45,361.00 313.00,361.45 313.00,362.00 C313.00,362.55 313.45,363.00 314.00,363.00 C314.55,363.00 315.00,362.55 315.00,362.00 ZM 294.68 448.71 C295.70,463.09 298.03,477.46 301.58,491.16 C298.69,480.42 296.67,469.50 295.47,458.12 C295.14,455.03 294.88,451.89 294.68,448.71 ZM 308.68 364.81 C308.36,364.01 308.13,364.25 308.08,365.42 C308.04,366.47 308.27,367.06 308.60,366.73 C308.94,366.40 308.97,365.53 308.68,364.81 ZM 706.38 524.41 C709.29,517.84 712.05,510.81 714.48,503.76 C712.11,510.79 709.41,517.69 706.38,524.41 ZM 312.88 522.87 C315.12,527.84 317.59,533.00 319.98,537.69 C318.69,535.18 317.37,532.51 316.00,529.64 C314.91,527.38 313.87,525.12 312.88,522.87 ZM 641.09 552.24 C643.20,549.34 645.27,546.41 647.30,543.44 C645.32,546.40 643.23,549.33 641.09,552.24 ZM 359.68 517.80 C356.18,511.57 352.26,504.14 348.48,496.59 C352.16,503.94 355.98,511.18 359.41,517.31 C359.50,517.47 359.59,517.63 359.68,517.80 ZM 647.38 543.42 L 647.38 543.43 C647.30,543.44 647.30,543.43 647.38,543.42 Z" fill="rgb(226,197,122)"/>
<path d="M 0.00 512.00 L 0.00 0.00 L 512.00 0.00 L 1024.00 0.00 L 1024.00 512.00 L 1024.00 1024.00 L 512.00 1024.00 L 0.00 1024.00 L 0.00 512.00 ZM 512.50 881.12 C514.70,880.11 517.29,878.39 518.26,877.30 C519.94,875.41 519.93,875.25 518.06,873.55 C516.17,871.85 515.92,871.86 511.73,873.89 C506.28,876.52 502.43,876.56 498.24,874.01 C491.70,870.02 489.42,862.72 492.44,855.49 C495.48,848.21 506.78,845.42 512.78,850.47 L 515.71 852.94 L 518.07 850.43 L 520.43 847.92 L 517.46 845.48 C509.74,839.14 497.83,839.93 490.17,847.29 C485.41,851.86 484.00,855.11 484.00,861.49 C484.00,876.73 499.22,887.22 512.50,881.12 ZM 387.00 865.00 L 387.00 848.00 L 393.50 848.00 L 400.00 848.00 L 400.00 845.00 L 400.00 842.00 L 383.50 842.00 L 367.00 842.00 L 367.00 845.00 L 367.00 848.00 L 373.50 848.00 L 380.00 848.00 L 380.00 865.00 L 380.00 882.00 L 383.50 882.00 L 387.00 882.00 L 387.00 865.00 ZM 412.20 875.75 L 412.50 869.50 L 417.13 869.20 L 421.75 868.90 L 425.58 875.45 C429.35,881.89 429.48,882.00 433.68,882.00 L 437.95 882.00 L 433.98 875.75 C431.80,872.31 430.01,869.04 430.01,868.47 C430.00,867.91 431.30,866.31 432.88,864.92 C438.64,859.86 437.68,848.71 431.10,844.29 C428.06,842.24 426.52,842.00 416.35,842.00 L 405.00 842.00 L 405.00 862.00 L 405.00 882.00 L 408.45 882.00 L 411.90 882.00 L 412.20 875.75 ZM 450.02 877.46 L 451.96 872.93 L 461.65 873.21 L 471.34 873.50 L 472.75 877.75 C474.10,881.79 474.36,882.00 478.08,882.00 C480.24,882.00 481.98,881.66 481.95,881.25 C481.92,880.84 478.20,871.95 473.68,861.50 L 465.45 842.50 L 461.64 842.50 L 457.83 842.50 L 449.42 862.00 C444.79,872.72 441.01,881.61 441.00,881.75 C441.00,881.89 442.59,882.00 444.54,882.00 C447.78,882.00 448.23,881.62 450.02,877.46 ZM 534.00 876.58 C534.00,872.20 534.50,870.56 536.59,868.08 C538.01,866.38 539.57,865.00 540.05,865.00 C540.53,865.00 543.52,868.81 546.71,873.46 C552.45,881.84 552.54,881.92 556.81,881.96 C559.98,881.99 560.93,881.67 560.39,880.75 C559.99,880.06 556.77,875.26 553.23,870.07 C549.70,864.89 546.57,860.04 546.28,859.30 C545.99,858.53 548.91,854.46 552.96,849.97 L 560.16 842.00 L 555.83 842.01 C551.61,842.03 551.28,842.28 543.00,851.71 L 534.50 861.39 L 534.21 851.70 L 533.93 842.00 L 530.61 842.00 L 527.30 842.00 L 526.81 850.25 C526.54,854.79 526.41,860.75 526.52,863.50 C526.62,866.25 526.78,871.54 526.86,875.25 L 527.00 882.00 L 530.50 882.00 L 534.00 882.00 L 534.00 876.58 ZM 596.00 879.00 L 596.00 876.00 L 585.00 876.00 L 574.00 876.00 L 574.00 870.50 L 574.00 865.00 L 583.50 865.00 L 593.00 865.00 L 593.00 862.00 L 593.00 859.00 L 583.50 859.00 L 574.00 859.00 L 574.00 853.50 L 574.00 848.00 L 584.50 848.00 L 595.00 848.00 L 595.00 845.00 L 595.00 842.00 L 581.00 842.00 L 567.00 842.00 L 567.00 862.00 L 567.00 882.00 L 581.50 882.00 L 596.00 882.00 L 596.00 879.00 ZM 610.20 875.75 C610.49,869.69 610.59,869.49 613.37,869.17 C618.62,868.57 620.45,869.74 624.03,875.95 C627.41,881.82 627.61,881.98 631.73,881.99 L 635.96 882.00 L 631.98 875.84 C629.79,872.46 628.00,869.34 628.00,868.92 C628.00,868.50 629.32,866.84 630.93,865.23 C636.76,859.39 635.84,848.81 629.10,844.28 C626.06,842.24 624.51,842.00 614.35,842.00 L 603.00 842.00 L 603.00 862.00 L 603.00 882.00 L 606.45 882.00 L 609.90 882.00 L 610.20 875.75 ZM 788.00 830.00 L 788.00 827.00 L 508.50 827.00 L 229.00 827.00 L 229.00 829.33 C229.00,830.62 229.30,831.97 229.67,832.33 C230.03,832.70 355.81,833.00 509.17,833.00 L 788.00 833.00 L 788.00 830.00 ZM 237.00 807.00 L 237.00 800.00 L 244.25 800.00 C255.81,800.00 261.71,795.77 262.72,786.76 C263.08,783.61 262.65,780.99 261.25,777.83 C258.35,771.27 255.00,770.00 240.60,770.00 L 229.00 770.00 L 229.00 791.33 C229.00,803.07 229.30,812.97 229.67,813.33 C230.03,813.70 231.83,814.00 233.67,814.00 L 237.00 814.00 L 237.00 807.00 ZM 300.00 810.53 L 300.00 807.07 L 289.25 806.78 L 278.50 806.50 L 278.23 788.25 L 277.95 770.00 L 273.98 770.00 L 270.00 770.00 L 270.00 791.33 C270.00,803.07 270.30,812.97 270.67,813.33 C271.03,813.70 277.78,814.00 285.67,814.00 L 300.00 814.00 L 300.00 810.53 ZM 312.00 809.00 L 313.76 804.50 L 324.17 804.22 L 334.58 803.94 L 336.70 808.97 C338.67,813.62 339.09,814.00 342.25,814.00 C344.13,814.00 345.91,813.75 346.21,813.45 C346.69,812.97 344.50,807.43 331.85,777.25 L 328.81 770.00 L 324.65 770.00 L 320.48 770.00 L 311.40 791.25 C306.40,802.94 302.51,812.86 302.75,813.30 C302.99,813.75 304.78,813.97 306.72,813.80 C309.88,813.53 310.44,813.03 312.00,809.00 ZM 378.02 813.01 C379.95,812.47 383.10,810.71 385.02,809.09 L 388.50 806.14 L 386.29 803.89 L 384.08 801.63 L 378.49 804.46 C373.40,807.03 372.55,807.18 369.00,806.12 C360.78,803.66 355.95,796.40 357.40,788.70 C359.28,778.67 370.71,773.90 380.14,779.20 L 384.05 781.40 L 386.22 779.22 L 388.40 777.05 L 385.99 774.49 C382.80,771.09 374.20,768.63 368.71,769.54 C345.88,773.34 341.65,801.95 362.49,811.65 C367.89,814.16 372.44,814.56 378.02,813.01 ZM 426.81 810.28 L 427.12 807.06 L 415.31 806.78 L 403.50 806.50 L 403.20 800.75 L 402.90 795.00 L 413.45 795.00 L 424.00 795.00 L 424.00 791.36 L 424.00 787.72 L 419.11 788.30 C416.43,788.62 411.70,788.62 408.61,788.30 L 403.00 787.72 L 403.00 782.36 L 403.00 777.00 L 414.50 777.00 L 426.00 777.00 L 426.00 773.50 L 426.00 770.00 L 410.50 770.00 L 395.00 770.00 L 395.00 791.33 C395.00,803.07 395.31,812.98 395.69,813.36 C396.07,813.74 403.16,813.93 411.44,813.78 L 426.50 813.50 L 426.81 810.28 ZM 442.00 799.00 L 442.50 784.50 L 447.90 795.50 C450.86,801.55 453.97,807.29 454.80,808.25 C457.85,811.78 459.35,810.26 465.41,797.47 C468.67,790.61 471.63,785.00 472.01,785.00 C472.38,785.00 472.64,791.41 472.59,799.25 L 472.50 813.50 L 476.00 813.50 L 479.50 813.50 L 479.77 791.75 L 480.04 770.00 L 475.27 770.03 L 470.50 770.07 L 464.08 783.53 C460.55,790.94 457.40,797.00 457.08,797.00 C456.76,797.00 453.62,790.92 450.11,783.50 L 443.72 770.00 L 438.86 770.00 L 434.00 770.00 L 434.00 791.33 C434.00,803.07 434.32,812.99 434.71,813.38 C435.11,813.77 436.79,813.96 438.46,813.80 L 441.50 813.50 L 442.00 799.00 ZM 522.00 810.50 L 522.00 807.00 L 510.63 807.00 L 499.26 807.00 L 498.66 803.25 C498.33,801.19 498.32,798.49 498.64,797.25 C499.20,795.11 499.71,795.00 509.12,795.00 L 519.00 795.00 L 519.00 791.50 L 519.00 788.00 L 509.00 788.00 L 499.00 788.00 L 499.00 782.50 L 499.00 777.00 L 510.00 777.00 L 521.00 777.00 L 521.00 773.50 L 521.00 770.00 L 506.15 770.00 L 491.30 770.00 L 490.67 778.82 C490.33,783.67 490.33,793.57 490.68,800.82 L 491.31 814.00 L 506.65 814.00 L 522.00 814.00 L 522.00 810.50 ZM 537.04 798.75 L 537.07 783.50 L 539.57 786.50 C540.95,788.15 545.97,794.67 550.72,801.00 C555.48,807.33 559.85,812.83 560.44,813.23 C561.02,813.64 562.72,813.98 564.21,813.98 L 566.93 814.00 L 567.21 792.00 L 567.50 770.00 L 563.75 770.00 L 560.00 770.00 L 560.00 784.50 C560.00,792.47 559.66,798.98 559.25,798.96 C558.84,798.94 553.61,792.41 547.64,784.46 C537.40,770.82 536.59,770.00 533.39,770.00 L 530.00 770.00 L 530.00 792.00 L 530.00 814.00 L 533.50 814.00 L 537.00 814.00 L 537.04 798.75 ZM 594.77 795.25 L 595.05 777.00 L 601.52 777.00 L 608.00 777.00 L 608.00 773.50 L 608.00 770.00 L 590.44 770.00 L 572.87 770.00 L 573.19 773.25 L 573.50 776.50 L 580.25 776.80 L 587.00 777.09 L 587.00 794.88 C587.00,804.66 587.32,812.99 587.71,813.38 C588.11,813.77 589.79,813.96 591.46,813.80 L 594.50 813.50 L 594.77 795.25 ZM 639.62 812.25 C639.69,811.56 639.81,808.53 639.88,805.50 L 640.00 800.00 L 646.75 800.00 C657.79,800.00 663.40,795.88 664.61,786.90 C665.07,783.47 664.73,781.18 663.25,777.83 C660.30,771.16 656.83,769.86 642.95,770.22 L 631.84 770.50 L 631.96 791.41 C632.02,802.90 632.32,812.72 632.63,813.21 C633.45,814.54 639.48,813.71 639.62,812.25 ZM 679.79 806.25 L 680.09 799.00 L 684.90 799.00 L 689.70 799.00 L 694.11 806.25 C698.36,813.25 698.66,813.51 702.76,813.81 C705.09,813.98 706.99,813.75 706.99,813.31 C706.98,812.86 704.97,809.35 702.51,805.50 L 698.04 798.50 L 700.40 796.50 C708.15,789.93 707.78,776.89 699.70,771.96 C696.99,770.30 694.64,770.01 684.25,770.00 L 672.00 770.00 L 672.00 791.33 C672.00,803.07 672.32,812.99 672.71,813.38 C673.11,813.77 674.79,813.96 676.46,813.80 L 679.50 813.50 L 679.79 806.25 ZM 746.00 810.53 L 746.00 807.07 L 734.75 806.78 L 723.50 806.50 L 723.20 800.75 L 722.90 795.00 L 732.95 795.00 L 743.00 795.00 L 743.00 791.50 L 743.00 788.00 L 733.00 788.00 L 723.00 788.00 L 723.00 782.53 L 723.00 777.07 L 734.25 776.78 L 745.50 776.50 L 745.81 773.25 L 746.13 770.00 L 730.56 770.00 L 715.00 770.00 L 715.00 791.33 C715.00,803.07 715.30,812.97 715.67,813.33 C716.03,813.70 723.01,814.00 731.17,814.00 L 746.00 814.00 L 746.00 810.53 ZM 761.80 806.75 L 762.09 800.00 L 769.08 800.00 C781.62,800.00 786.99,795.57 787.00,785.20 C787.00,778.80 784.99,774.58 780.70,771.96 C778.01,770.32 775.64,770.01 765.75,770.00 L 754.00 770.00 L 754.00 791.33 C754.00,803.07 754.32,812.99 754.71,813.38 C755.11,813.77 756.79,813.96 758.46,813.80 C761.48,813.50 761.50,813.46 761.80,806.75 ZM 795.99 767.62 C797.00,766.58 799.98,765.19 802.62,764.52 L 807.41 763.30 L 803.62 762.59 C797.21,761.39 795.08,759.94 794.01,756.09 C793.46,754.12 792.98,751.60 792.95,750.50 C792.91,749.40 791.90,751.20 790.69,754.50 C788.61,760.21 788.26,760.58 783.66,762.11 C779.02,763.65 778.93,763.74 781.68,764.29 C786.38,765.23 789.63,768.52 791.02,773.72 L 792.30 778.50 L 793.23 774.00 C793.74,771.53 794.98,768.65 795.99,767.62 ZM 526.62 708.71 C527.87,707.46 526.15,706.69 520.25,705.85 C513.98,704.96 501.01,705.74 498.85,707.13 C497.73,707.85 497.76,708.18 499.00,709.05 C500.66,710.21 525.42,709.91 526.62,708.71 ZM 533.68 656.35 C539.29,652.47 543.89,650.00 545.50,650.00 C546.96,650.00 553.13,648.85 559.22,647.45 C584.31,641.67 605.85,632.07 629.87,615.96 C681.29,581.48 716.12,524.29 724.46,460.63 C728.09,432.94 725.13,396.83 717.10,371.08 C715.24,365.09 715.20,364.16 716.53,357.08 C718.81,344.94 721.87,317.86 722.97,300.00 C724.12,281.42 724.25,242.56 723.18,236.56 L 722.49 232.62 L 710.49 227.74 C664.78,209.14 618.83,197.35 568.50,191.32 C556.21,189.85 545.83,189.53 511.00,189.56 C473.12,189.58 466.71,189.83 452.00,191.77 C400.42,198.60 352.99,210.97 311.34,228.44 L 300.19 233.12 L 299.45 244.81 C298.53,259.44 299.51,294.21 301.48,316.26 C302.91,332.34 305.55,353.01 306.54,355.85 C306.80,356.60 305.93,360.22 304.61,363.89 C295.67,388.66 292.05,425.97 295.47,458.12 C298.13,483.17 304.68,505.99 316.00,529.64 C323.41,545.14 329.37,554.94 337.62,565.20 C340.58,568.88 343.00,572.41 343.00,573.03 C343.00,574.88 365.80,597.65 375.00,604.97 C395.43,621.24 417.22,633.48 440.25,641.63 C451.18,645.49 470.06,650.13 476.07,650.43 C481.04,650.67 482.63,651.37 491.07,657.07 C496.25,660.57 503.15,664.86 506.39,666.61 L 512.28 669.78 L 518.39 666.24 C521.75,664.29 528.63,659.84 533.68,656.35 ZM 412.99 860.75 C412.99,859.51 412.70,856.14 412.35,853.25 L 411.72 848.00 L 418.25 848.00 C426.50,848.00 429.40,849.95 429.40,855.50 C429.40,860.90 426.46,863.00 418.89,863.00 C413.45,863.00 413.00,862.83 412.99,860.75 ZM 455.31 865.25 C456.15,862.50 460.65,852.01 461.24,851.43 C461.70,850.96 468.00,864.94 468.00,866.43 C468.00,866.74 465.02,867.00 461.38,867.00 C455.54,867.00 454.83,866.79 455.31,865.25 ZM 610.00 855.50 L 610.00 848.00 L 616.39 848.00 C623.73,848.00 626.65,849.70 627.58,854.52 C628.00,856.71 627.57,858.27 626.01,860.27 C624.03,862.77 623.28,863.00 616.93,863.00 L 610.00 863.00 L 610.00 855.50 ZM 237.67 792.33 C237.30,791.97 237.00,788.37 237.00,784.33 L 237.00 777.00 L 244.00 777.00 C252.35,777.00 255.00,778.82 255.00,784.55 C255.00,790.24 251.48,793.00 244.21,793.00 C240.98,793.00 238.03,792.70 237.67,792.33 ZM 320.15 789.25 C321.79,784.99 323.49,781.13 323.93,780.69 C324.61,780.00 331.02,794.10 331.01,796.25 C331.00,796.66 327.89,797.00 324.09,797.00 L 317.17 797.00 L 320.15 789.25 ZM 639.42 791.64 C639.13,790.90 639.03,787.41 639.20,783.89 L 639.50 777.50 L 646.21 777.21 C654.46,776.84 657.00,778.68 657.00,785.00 C657.00,791.12 654.52,793.00 646.47,793.00 C641.90,793.00 639.78,792.59 639.42,791.64 ZM 680.75 792.43 C680.34,792.01 680.00,788.37 680.00,784.33 L 680.00 777.00 L 687.35 777.00 C696.11,777.00 698.00,778.39 698.00,784.81 C698.00,788.18 697.51,789.28 695.38,790.67 C692.63,792.47 682.04,793.74 680.75,792.43 ZM 762.00 785.00 L 762.00 777.00 L 768.85 777.00 C776.30,777.00 778.25,778.13 779.50,783.14 C780.26,786.17 777.96,791.42 775.46,792.38 C774.56,792.72 771.17,793.00 767.92,793.00 L 762.00 793.00 L 762.00 785.00 ZM 415.00 595.80 C393.15,582.48 370.96,560.73 356.03,538.00 C339.09,512.22 326.86,477.47 325.40,451.03 L 324.93 442.50 L 326.82 447.00 C327.85,449.48 330.88,457.12 333.53,464.00 C339.66,479.90 355.83,512.19 364.87,526.63 C378.68,548.67 392.54,566.79 410.92,586.82 C417.13,593.59 422.05,599.27 421.85,599.45 C421.66,599.62 418.58,597.98 415.00,595.80 ZM 604.50 595.87 C605.60,594.57 609.78,589.97 613.79,585.63 C644.75,552.16 671.63,509.23 689.01,465.50 C691.85,458.35 694.42,452.27 694.72,452.00 C695.66,451.14 693.96,464.11 691.94,473.23 C689.37,484.82 684.98,498.35 680.01,510.00 C675.59,520.34 666.98,536.02 663.54,540.00 C662.35,541.38 659.61,545.20 657.44,548.49 C652.73,555.66 626.84,582.03 618.79,587.87 C615.65,590.15 610.70,593.41 607.79,595.12 C603.02,597.93 602.70,598.00 604.50,595.87 Z" fill="rgb(253,253,253)"/>
</g>
</svg>